<?xml version="1.0" encoding="UTF-8"?>
<svg id="Capa_1" data-name="Capa 1" xmlns="http://www.w3.org/2000/svg" viewBox="0 0 1254 1254">
  <defs>
    <style>
      .cls-1 {
        fill: #fff;
      }
    </style>
  </defs>
  <path class="cls-1" d="M237.78,190.08l3.45-1.55c82.03.34,164.07-.26,246.1,0,76.4.24,153.83-3.5,228.67,17.33,63.44,17.66,147.92,67.94,189.25,120.75,12.28,15.69,27.09,31.41,38.4,48.83,87.67,134.9,94.96,305.57,26.99,450.5-43.55,92.86-129.59,176.47-225.87,215.13-21.05,8.45-43.66,15.61-65.99,19.52l27-310h-288l26,315h-206V190.08ZM637.51,426.25c0-41.2-33.4-74.6-74.6-74.6s-74.6,33.4-74.6,74.6,33.4,74.6,74.6,74.6,74.6-33.4,74.6-74.6ZM889.38,634.21c25.32-65.72,7.68-146.72-34.64-201.08-7.57-9.73-18.84-26.21-32.45-13.53-12.08,11.25.12,21.01,6.46,29.52,25.94,34.81,46.91,85.62,41.11,130.04-.24,1.85-1.87,1.31-2.06,2.12-.68,2.87.35,7.28-.14,10.69-2.79,19.32-10.95,42.57-20.36,59.64-4.02,7.3-17.07,22.93-17.55,29.5-1.04,14.47,15.17,21.92,25.52,12.47,10.77-9.84,28.78-45.56,34.1-59.37ZM775.16,614.94c-2.7,5.38-7.08,11.73-5.95,17.69,2.21,11.61,16.66,16.4,25.12,8,14.18-14.09,24.74-52.84,25.5-72.5,1.06-27.31-11.47-69.51-30.07-90.01-7.81-8.6-19.58-9.57-25.82,1.12-6.7,11.47,2.52,16.79,7.66,25.05,23.68,38.02,22.96,71.97,3.57,110.66ZM690.78,657.58c3.86-34.78-8.71-69.17-31.03-95.47-2.69-3.17-6.41-5.21-7.53-9.47-65.05-57.4-165.27-40.23-204.63,36.26-4.67,9.07-13.81,33.6-13.81,43.19v25.5h257ZM398.28,730.58h328c4.19,0,1.58,9.53,1.51,11.51-.46,12.85-1.32,25.66-2.01,38.48,1.73.45,2-.72,3-1.49,6.14-4.71,14.01-12.53,20.01-17.99,6.3-5.73,25.28-22.17,28.84-28.16,3.98-6.7,4.43-32.58,2.46-40.17-2.18-8.44-11.16-14.48-19.78-14.22l-399.96.13c-19.88,3.72-19.03,26.32-17.57,42.4s15.05,22.94,26,33c8.38,7.71,16.99,17.09,25.98,24.02,1,.77,1.27,1.94,3,1.49l-1.48-46.98c.22-.46,1.65-1.92,1.98-2.02Z"/>
</svg>